# xmcd CD database file
# Copyright (C) 1996 Ti Kan
#
# Track frame offsets:
# 	187
# 	16242
# 	32155
# 	43822
# 	58880
# 	78190
# 	97330
# 	110922
# 	126622
# 	141982
#
# Disc length: 2094 seconds
#
# Revision: 1
# Processed by: cddbd v1.4b41PL1 Copyright (c) Steve Scherf et al.
# Submitted via: DiscPlay 3.4.1
#
DISCID=98082c0a
DTITLE=Lionel Cartwright - Lionel Cartwright
DYEAR=1900
DGENRE=
TTITLE0=Fallin' Again
TTITLE1=Like Father Like Son
TTITLE2=You're Gonna Make Her Mine
TTITLE3=A Little Lesser Blue
TTITLE4=In My Eyes
TTITLE5=Give Me His Last Chance
TTITLE6=That's Why They Call It Falling
TTITLE7=Blue Fiddle Waltz
TTITLE8=She Never Saw Love (Like It Was Meant To Be)
TTITLE9=Let The Hard Times Roll
EXTD=
EXTT0=
EXTT1=
EXTT2=
EXTT3=
EXTT4=
EXTT5=
EXTT6=
EXTT7=
EXTT8=
EXTT9=
PLAYORDER=
